<svg width="20" height="20" viewBox="0 0 20 20" fill="none" xmlns="http://www.w3.org/2000/svg">
<path d="M18.0916 16.9083L14.9999 13.8417C16.2 12.3454 16.7812 10.4461 16.6239 8.53443C16.4667 6.62276 15.583 4.844 14.1545 3.56388C12.7261 2.28377 10.8614 1.5996 8.94402 1.65207C7.02662 1.70454 5.20219 2.48965 3.84587 3.84596C2.48956 5.20228 1.70445 7.02671 1.65198 8.94411C1.59951 10.8615 2.28368 12.7262 3.56379 14.1546C4.84391 15.5831 6.62267 16.4668 8.53434 16.624C10.446 16.7813 12.3453 16.2001 13.8416 15L16.9083 18.0667C16.9857 18.1448 17.0779 18.2068 17.1794 18.2491C17.281 18.2914 17.3899 18.3132 17.4999 18.3132C17.6099 18.3132 17.7189 18.2914 17.8204 18.2491C17.9219 18.2068 18.0141 18.1448 18.0916 18.0667C18.2418 17.9113 18.3257 17.7036 18.3257 17.4875C18.3257 17.2714 18.2418 17.0637 18.0916 16.9083ZM9.16659 15C8.01286 15 6.88505 14.6579 5.92576 14.0169C4.96647 13.3759 4.2188 12.4649 3.77729 11.399C3.33578 10.3331 3.22026 9.16021 3.44534 8.02865C3.67042 6.8971 4.22599 5.8577 5.0418 5.04189C5.8576 4.22608 6.897 3.67051 8.02856 3.44543C9.16012 3.22035 10.333 3.33587 11.3989 3.77738C12.4648 4.21889 13.3759 4.96657 14.0168 5.92585C14.6578 6.88514 14.9999 8.01295 14.9999 9.16668C14.9999 10.7138 14.3853 12.1975 13.2914 13.2915C12.1974 14.3854 10.7137 15 9.16659 15Z" fill="#667479"/>
</svg>
